<?xml version="1.0" standalone="no"?>
<!DOCTYPE svg PUBLIC "-//W3C//DTD SVG 20010904//EN"
 "http://www.w3.org/TR/2001/REC-SVG-20010904/DTD/svg10.dtd">
<svg version="1.0" xmlns="http://www.w3.org/2000/svg"
 width="700.000000pt" height="700.000000pt" viewBox="0 0 700.000000 700.000000"
 preserveAspectRatio="xMidYMid meet">
<metadata>
Created by potrace 1.14, written by Peter Selinger 2001-2017
</metadata>
<g transform="translate(0.000000,700.000000) scale(0.100000,-0.100000)"
fill="#000000" stroke="none">
<path d="M3220 6994 c-182 -20 -243 -29 -360 -50 -786 -142 -1522 -571 -2041
-1189 -381 -455 -640 -991 -753 -1560 -54 -276 -61 -347 -61 -695 0 -348 7
-419 61 -695 198 -995 833 -1864 1731 -2366 382 -215 772 -343 1258 -416 173
-26 717 -26 890 0 586 88 1051 263 1505 567 368 247 713 592 960 960 256 382
440 823 524 1258 55 283 61 346 61 692 0 346 -6 409 -61 692 -148 761 -576
1484 -1179 1989 -518 434 -1119 699 -1800 795 -114 15 -640 29 -735 18z m300
-454 c-6 -11 -15 -20 -20 -20 -5 0 -14 9 -20 20 -10 18 -8 20 20 20 28 0 30
-2 20 -20z m-496 -249 l189 -189 -301 -428 c-254 -362 -315 -444 -396 -524
-84 -82 -98 -93 -110 -80 -8 8 -159 222 -336 475 l-321 460 22 18 c75 61 355
216 509 282 171 74 474 173 535 174 13 1 85 -64 209 -188z m1297 155 c210 -58
399 -133 594 -235 112 -59 274 -156 314 -188 l22 -18 -321 -460 c-177 -253
-328 -467 -336 -475 -13 -13 -27 -2 -122 95 -90 93 -153 175 -396 524 l-289
413 189 189 c104 104 196 189 205 189 8 0 71 -15 140 -34z m-342 -1110 l473
-473 -290 -414 -291 -414 -185 -185 -186 -185 -185 185 -186 185 -290 414
-291 414 473 473 c261 261 476 474 479 474 3 0 218 -213 479 -474z m-2336
-1058 c-252 -252 -461 -458 -464 -458 -4 0 -127 172 -274 382 l-267 381 22 56
c121 299 309 607 530 865 l65 76 422 -422 423 -423 -457 -457z m4231 1147
c192 -235 354 -509 466 -786 l23 -57 -268 -381 c-147 -209 -270 -381 -273
-381 -4 0 -213 206 -464 457 l-458 458 423 423 422 422 28 -32 c15 -18 61 -73
101 -123z m-3074 -1390 l535 -535 -537 -537 -538 -538 -185 185 -185 185 -242
345 c-133 190 -242 352 -242 360 0 8 107 168 238 355 237 339 238 341 424 528
103 103 189 187 192 187 3 0 246 -241 540 -535z m2132 348 c186 -187 187 -189
424 -528 131 -187 238 -347 238 -355 0 -8 -109 -170 -242 -360 l-242 -345
-185 -185 -185 -185 -538 538 -537 537 535 535 c294 294 537 535 540 535 3 0
89 -84 192 -187z m-4262 -1078 c-107 -107 -198 -191 -202 -187 -4 4 -13 92
-20 195 -9 148 -9 226 0 373 7 103 15 191 19 196 3 6 94 -78 202 -186 l196
-196 -195 -195z m5881 382 c10 -146 10 -228 0 -374 -6 -103 -15 -191 -19 -195
-4 -4 -95 80 -202 187 l-195 195 195 195 c107 107 198 191 202 187 4 -4 13
-92 19 -195z m-2855 -549 l192 -193 282 -404 282 -404 -476 -476 -476 -476
-476 476 -476 476 282 404 283 404 191 193 c105 105 193 192 196 192 3 0 91
-87 196 -192z m-2053 -416 l457 -457 -423 -423 -422 -422 -65 76 c-221 258
-409 566 -530 865 l-22 56 267 381 c147 210 270 382 274 382 3 0 212 -206 464
-458z m4452 77 l267 -381 -37 -91 c-113 -278 -301 -581 -515 -831 l-65 -76
-422 422 -423 423 457 457 c252 252 461 458 465 458 3 0 127 -171 273 -381z
m-3183 -1473 l301 -428 -189 -190 c-219 -219 -175 -203 -386 -143 -159 46
-371 131 -528 211 -160 82 -356 207 -352 224 2 7 150 223 330 481 l327 468 98
-97 c85 -83 141 -157 399 -526z m2011 138 l328 -469 -22 -18 c-77 -62 -339
-208 -509 -282 -122 -54 -361 -135 -473 -161 l-78 -18 -191 191 -191 191 289
413 c239 342 307 433 393 522 58 59 109 106 115 104 6 -2 158 -215 339 -473z
m-1403 -1004 c10 -18 8 -20 -20 -20 -28 0 -30 2 -20 20 6 11 15 20 20 20 5 0
14 -9 20 -20z"/>
</g>
</svg>
